<svg width="580" height="400" xmlns="http://www.w3.org/2000/svg">
    <!-- Created with Method Draw - http://github.com/duopixel/Method-Draw/ -->
    <defs>
        <linearGradient y2="0" x2="1" y1="0" x1="0" id="svg_22">
            <stop offset="0" stop-color="#000"/>
            <stop offset="1" stop-color="#ffffff"/>
        </linearGradient>
    </defs>
    <g>
        <title>background</title>
        <rect fill="#fff" id="canvas_background" height="402" width="582" y="-1" x="-1"/>
        <g display="none" overflow="visible" y="0" x="0" height="100%" width="100%" id="canvasGrid">
            <rect fill="url(#gridpattern)" stroke-width="0" y="0" x="0" height="100%" width="100%"/>
        </g>
    </g>
    <g>
        <title>Layer 1</title>
        <line stroke-linecap="undefined" stroke-linejoin="undefined" id="svg_1" y2="156.5" x2="266.5" y1="306.5" x1="267.5" stroke-width="1.5" stroke="#000" fill="none"/>
        <ellipse stroke="#000" rx="8" id="svg_4" cy="97.5" cx="238.5" stroke-width="1.5" fill="#fff"/>
        <ellipse ry="16.5" rx="11" id="svg_5" cy="117" cx="264.5" stroke-opacity="null" stroke-width="1.5" stroke="#000" fill="#ffff00"/>
        <ellipse ry="16.5" rx="16.5" id="svg_7" cy="150" cx="232" stroke-opacity="null" stroke-width="1.5" stroke="#000" fill="#ffff00"/>
        <ellipse ry="17.5" rx="17.5" id="svg_8" cy="150" cx="297" stroke-opacity="null" stroke-width="1.5" stroke="#000" fill="#ffff00"/>
        <ellipse stroke="#000" ry="16" rx="15" id="svg_9" cy="172.5" cx="251.5" stroke-width="1.5" fill="#ffff00"/>
        <ellipse ry="13.5" rx="14" id="svg_10" cy="173" cx="281.5" stroke-width="1.5" stroke="#000" fill="#ffff00"/>
        <ellipse ry="14" rx="14.5" id="svg_11" cy="122.5" cx="287" stroke-opacity="null" stroke-width="1.5" stroke="#000" fill="#ffff56"/>
        <ellipse ry="14" rx="14.5" id="svg_12" cy="124.5" cx="243" stroke-opacity="null" stroke-width="1.5" stroke="#000" fill="#ffff00"/>
        <ellipse stroke="#000" ry="31" rx="34" id="svg_3" cy="148.5" cx="265.5" stroke-width="1.5" fill="#fff"/>
        <ellipse transform="rotate(-27 296.50000000000006,289.49999999999994) " stroke="#000" ry="11" rx="31" id="svg_14" cy="289.5" cx="296.5" stroke-opacity="null" stroke-width="1.5" fill="#007f00"/>
        <ellipse transform="rotate(-151 237,288) " ry="11.5" rx="33.5" id="svg_15" cy="288" cx="237" stroke-opacity="null" stroke-width="1.5" stroke="#000" fill="#007f00"/>
        <ellipse stroke="#000" ry="1.5" id="svg_16" cy="318" cx="227.5" fill-opacity="null" stroke-opacity="null" stroke-width="1.5" fill="#fff"/>
        <ellipse ry="4" rx="9" id="svg_17" cy="141.5" cx="250.5" stroke-opacity="0" stroke-width="1.5" stroke="url(#svg_22)" fill="#3f7f00"/>
        <ellipse stroke="url(#svg_22)" ry="4.5" rx="11" id="svg_19" cy="141" cx="279.5" fill-opacity="null" stroke-opacity="0" stroke-width="1.5" fill="#3f7f00"/>
        <ellipse ry="9" rx="6" id="svg_20" cy="165.5" cx="267.5" stroke-opacity="null" stroke-width="1.5" stroke="#000" fill="#f48997"/>
        <ellipse ry="0.94595" rx="0.94595" id="svg_23" cy="143.37859" cx="250.94632" stroke-width="1.5" stroke="#000000" fill="#7f3f00"/>
        <ellipse ry="0.67568" rx="1.62162" id="svg_24" cy="142.02724" cx="279.1896" fill-opacity="null" stroke-opacity="null" stroke-width="1.5" stroke="#000" fill="#f48997"/>
    </g>
</svg>